<?xml version="1.0" standalone="no"?>
<!DOCTYPE svg PUBLIC "-//W3C//DTD SVG 20010904//EN"
 "http://www.w3.org/TR/2001/REC-SVG-20010904/DTD/svg10.dtd">
<svg version="1.0" xmlns="http://www.w3.org/2000/svg"
 width="800.000000pt" height="800.000000pt" viewBox="0 0 800.000000 800.000000"
 preserveAspectRatio="xMidYMid meet">
<metadata>
Created by potrace 1.11, written by Peter Selinger 2001-2013
</metadata>
<g transform="translate(0.000000,800.000000) scale(0.100000,-0.100000)"
fill="#000000" stroke="none">
<path d="M3768 5425 c-2 -2 -42 -6 -88 -10 -47 -3 -96 -7 -110 -9 -14 -2 -50
-6 -80 -10 -48 -6 -235 -38 -295 -50 -132 -27 -425 -114 -565 -168 -274 -105
-542 -244 -774 -402 -149 -101 -219 -152 -262 -191 -7 -5 -31 -26 -55 -45
-158 -127 -378 -347 -519 -520 -25 -30 -47 -57 -50 -60 -3 -3 -35 -45 -71 -95
-100 -137 -166 -238 -263 -405 -121 -208 -264 -544 -331 -778 -14 -48 -28 -95
-31 -104 -5 -17 26 -18 565 -18 406 0 571 3 571 11 0 17 80 197 117 262 18 33
33 61 33 64 0 8 101 174 127 209 13 17 23 36 23 42 0 7 3 12 8 12 4 0 18 18
32 40 14 22 28 40 32 40 5 0 8 4 8 9 0 9 35 54 78 98 12 13 22 26 22 29 0 5
52 62 120 133 72 74 214 200 295 261 33 24 67 50 75 58 52 46 348 219 430 251
19 8 40 18 45 22 26 19 315 127 360 135 11 2 54 13 95 24 41 12 86 23 100 26
14 2 36 7 50 10 14 3 36 8 50 10 14 2 34 6 45 9 11 2 47 7 80 11 33 3 74 8 90
11 55 9 459 11 525 3 36 -4 92 -11 125 -15 183 -20 505 -106 695 -187 117 -50
312 -148 322 -162 4 -6 8 -7 8 -2 0 5 8 2 18 -6 9 -8 49 -34 87 -58 39 -24 72
-46 75 -49 3 -3 29 -22 57 -41 29 -19 53 -38 53 -42 0 -5 7 -8 15 -8 8 0 20
-9 27 -20 7 -11 18 -20 25 -20 6 0 13 -3 15 -7 2 -5 41 -42 88 -83 46 -41 116
-108 155 -149 38 -41 80 -85 93 -98 12 -13 22 -26 22 -28 0 -2 14 -19 30 -37
17 -18 43 -51 58 -73 15 -22 37 -51 50 -65 12 -14 22 -30 22 -37 0 -6 3 -13 8
-15 8 -4 64 -87 116 -175 46 -77 172 -339 181 -376 l7 -27 569 0 569 0 -6 28
c-11 45 -111 347 -127 383 -8 19 -39 88 -67 154 -81 186 -165 344 -281 526
-50 80 -222 316 -268 369 -12 14 -50 58 -84 97 -82 96 -299 309 -412 404 -245
206 -552 404 -835 537 -236 111 -562 226 -760 267 -8 1 -33 8 -55 13 -37 10
-193 39 -260 48 -16 2 -43 7 -60 9 -16 3 -57 7 -90 11 -33 3 -73 8 -90 10 -35
7 -571 15 -577 9z"/>
</g>
</svg>
